<?xml version="1.0" encoding="UTF-8"?>
<svg width="294px" height="75px" viewBox="0 0 294 75" version="1.1" xmlns="http://www.w3.org/2000/svg" xmlns:xlink="http://www.w3.org/1999/xlink">
    <title>logo_black</title>
    <g id="logo_black" stroke="none" stroke-width="1" fill="none" fill-rule="evenodd">
        <g fill-rule="nonzero">
            <g id="Group" transform="translate(78.000000, 36.000000)" fill="#000000">
                <path d="M19.2,18.2 C22.1,16.5 23.8,13.7 23.8,10.4 C23.8,7.4 22.6,4.9 20.4,3.3 C18,1.3 14.8,0.5 10,0.5 C6.7,0.5 3.4,0.8 1.4,1.3 L0.6,1.5 L0.6,38.3 L1.5,38.4 C3,38.6 5.5,38.8 8.8,38.8 C15.1,38.8 19.2,37.7 21.8,35.2 C24,33.2 25.2,30.4 25.2,27.3 C25.2,22.5 22.3,19.6 19.2,18.2 Z M10.5,15.9 L7.3,15.9 L7.3,6.3 C8,6.2 9,6.1 10.4,6.1 C17.2,6.1 17.2,9.7 17.2,10.9 C17.2,13.9 14.5,15.9 10.5,15.9 Z M7.4,21.4 L10.2,21.4 C12.1,21.4 18.4,21.8 18.4,27.3 C18.4,32.4 13.3,33.2 10.2,33.2 C9.1,33.2 8.2,33.2 7.4,33.1 L7.4,21.4 Z" id="Shape"></path>
                <path d="M41.8,0.7 L28.9,38.4 L35.8,38.4 L39.5,27.2 L50.8,27.2 L54.6,38.4 L61.6,38.4 L48.7,0.7 L41.8,0.7 Z M49.2,21.7 L41.1,21.7 L44.2,12.7 C44.5,11.7 44.8,10.6 45.1,9.6 C45.4,10.6 45.7,11.7 46.1,12.8 L49.2,21.7 Z" id="Shape"></path>
                <path d="M94.6,0.8 L88,18.8 C86.9,21.8 86,24.7 85.1,27.6 C84.3,24.9 83.5,22 82.4,18.8 L76.1,0.8 L68.6,0.8 L66,38.5 L72.4,38.5 L73.5,22.3 C73.7,19.4 73.8,16.1 74,12.9 C74.8,15.5 75.6,18.2 76.5,20.7 L82.5,38.4 L87.4,38.4 L93.9,20.4 C94.9,17.5 95.9,14.8 96.7,12.2 C96.8,15 97,18.2 97.2,21.9 L98,38.5 L104.6,38.5 L102.3,0.8 L94.6,0.8 Z" id="Path"></path>
                <path d="M130.8,18.2 C133.7,16.5 135.4,13.7 135.4,10.4 C135.4,7.4 134.2,4.9 132,3.3 C129.6,1.3 126.4,0.5 121.6,0.5 C118.3,0.5 115,0.8 113,1.3 L112.2,1.5 L112.2,38.3 L113.1,38.4 C114.6,38.6 117.1,38.8 120.4,38.8 C126.7,38.8 130.8,37.7 133.4,35.2 C135.6,33.2 136.8,30.4 136.8,27.3 C136.8,22.5 133.9,19.6 130.8,18.2 Z M122,15.9 L118.8,15.9 L118.8,6.3 C119.5,6.2 120.5,6.1 121.9,6.1 C128.7,6.1 128.7,9.7 128.7,10.9 C128.7,13.9 126,15.9 122,15.9 Z M118.9,21.4 L121.7,21.4 C123.6,21.4 129.9,21.8 129.9,27.3 C129.9,32.4 124.8,33.2 121.7,33.2 C120.6,33.2 119.7,33.2 118.9,33.1 L118.9,21.4 Z" id="Shape"></path>
                <path d="M158.9,0 C148.6,0 141.4,8.1 141.4,19.8 C141.4,31.1 148.4,39 158.5,39 C167.3,39 176.1,32.9 176.1,19.2 C176.1,7.8 169.2,0.1 158.9,0 Z M169.1,19.5 C169.1,26.4 165.9,33.3 158.7,33.3 C151.6,33.3 148.3,26.3 148.3,19.8 C148.3,13.4 151,5.9 158.7,5.9 C165.8,5.9 169.1,12.9 169.1,19.5 Z" id="Shape"></path>
                <path d="M198,0 C187.7,0 180.5,8.1 180.5,19.8 C180.5,31.1 187.5,39 197.6,39 C206.4,39 215.2,32.9 215.2,19.2 C215.2,7.8 208.3,0.1 198,0 Z M208.3,19.5 C208.3,26.4 205.1,33.3 197.9,33.3 C190.8,33.3 187.5,26.3 187.5,19.8 C187.5,12.9 190.7,5.9 197.9,5.9 C205,5.9 208.3,12.9 208.3,19.5 Z" id="Shape"></path>
            </g>
            <g id="Group" transform="translate(0.000000, 2.000000)">
                <path d="M1,0.5 C1,0.5 -2.5,106.9 62.4,57.6 L1,0.5 Z" id="Path" fill="#679B3A"></path>
                <path d="M1,0.5 C2,0.5 3,0.6 3.9,0.7 C78.8,5.9 78.5,44.6 62.4,57.6 L1,0.5 Z" id="Path" fill="#9DCA52"></path>
            </g>
            <path d="M155.4,13.5 L155.1,14 C154.7,14.7 154.3,15.1 154,15.6 C153.6,16 153.2,16.4 152.8,16.6 C152.4,16.9 151.9,17.1 151.5,17.1 C151.1,17.2 150.6,17.3 150.1,17.3 C150.4,16.8 150.6,16.2 150.7,15.5 C151,14.7 151.3,13.9 151.5,12.9 C151.8,11.9 151.9,11 152,10.3 C152.1,9.5 152.2,8.7 152.2,8 C152.2,7 152.1,6.1 151.9,5.3 C151.7,4.5 151.5,3.7 151,3 C150.6,2.4 150.2,1.8 149.5,1.4 C148.8,1 148.2,0.8 147.5,0.8 C146.7,0.8 145.9,1 145.2,1.5 C144.6,1.9 144,2.5 143.5,3.2 C142.9,4 142.6,4.9 142.3,5.7 C142,6.6 141.9,7.6 141.9,8.8 C141.9,9.8 142,10.9 142.2,11.9 C142.4,12.9 142.6,13.8 143,14.8 C143.4,15.7 143.8,16.4 144.4,17.2 C144.8,17.8 145.3,18.2 145.9,18.6 C145.2,19.5 144.5,20.5 143.7,21.3 C143,22.1 142,23.1 141,23.8 C139.9,24.6 139,25.1 138.1,25.4 C137.2,25.8 136.2,26 135.2,26 C134,26 133.2,25.7 132.6,25 C132,24.3 131.7,23.3 131.7,21.9 C131.7,20.2 132,18.6 132.7,17 C133.4,15.4 134.2,13.7 135.3,12.1 C136.4,10.5 137.4,9.1 138.7,7.7 C139.8,6.5 141,5.4 142.4,4.4 L142.8,4.1 L141.2,2 L140.8,2.2 C139.9,2.6 138.7,3.3 137.5,4.2 L136.8,4.7 C136,5.3 135.1,6 134.3,6.8 C133.3,7.7 132.3,8.9 131.4,10 C130.5,11.2 129.7,12.3 129.1,13.6 C129.1,13.7 129,13.8 129,13.9 L129,14 C128,15.6 127,16.9 125.9,18.1 C124.9,19.3 123.6,20.7 122.2,21.9 C120.9,23 119.4,24 118,24.6 C115.8,25.6 113.5,25.9 111.4,25.4 C110.8,25.2 110.4,24.9 109.9,24.4 C109.5,24 109.2,23.4 108.9,22.6 C108.6,21.9 108.5,21 108.5,19.8 C108.5,18.1 108.7,16.8 109,15.6 C109.4,14.1 109.9,12.8 110.5,11.6 C111.1,10.2 111.8,9.1 112.6,8.1 C113.5,7 114.3,6.2 115.3,5.4 C116.2,4.7 117.2,4.1 118.3,3.6 C119.3,3.1 120.2,2.9 121.3,2.9 C122.3,2.9 123.2,3.1 123.8,3.5 C124.3,3.9 124.5,4.3 124.5,4.9 C124.5,5.1 124.5,5.3 124.4,5.4 L124.4,5.4 C123.6,5.4 123,5.6 122.6,5.9 C122,6.2 121.7,6.6 121.5,6.9 C121.3,7.2 121.1,7.5 121.1,7.9 C121,8.1 121,8.4 121,8.4 C121,9.1 121.3,9.7 121.7,10.1 C122.1,10.5 122.7,10.7 123.4,10.7 C124.1,10.7 124.7,10.5 125.1,10.1 C125.5,9.8 126,9.3 126.3,8.7 C126.6,8.2 126.8,7.5 127.1,6.8 C127.2,6.2 127.3,5.6 127.3,4.9 C127.3,4.5 127.3,4 127.1,3.4 C126.9,2.8 126.5,2.3 126.1,1.8 C125.6,1.3 125,0.9 124.2,0.6 C123.4,0.3 122.3,0.1 121.2,0.1 C120.1,0.1 118.8,0.3 117.5,0.7 C116.2,1.1 115,1.7 113.6,2.5 C112.4,3.2 111.2,4.1 109.9,5.4 C108.7,6.6 107.7,7.8 106.8,9.2 C105.9,10.6 105.2,12.2 104.6,13.8 C104.6,13.9 104.5,14 104.5,14.2 C101.7,18.7 99,21.9 96.2,23.9 C93.4,25.9 90.6,26.9 87.6,26.9 C86.8,26.9 86.1,26.7 85.4,26.5 C84.7,26.1 84.2,25.7 83.7,25.2 C83.3,24.7 82.9,24.2 82.7,23.3 C82.4,22.6 82.3,21.9 82.3,21.1 L82.3,20.3 C82.3,20.2 82.3,20.2 82.3,20.1 C82.3,20.1 82.3,20 82.3,20 C83.5,20 84.7,19.8 85.8,19.6 C87.2,19.3 88.7,18.9 90.1,18.4 C91.5,17.9 92.9,17.2 94.2,16.5 C95.6,15.7 96.8,14.7 97.6,13.9 C98.5,13.1 99.3,12.1 100,10.8 C100.6,9.6 101,8.4 101,7.1 C101,5.9 100.7,5.1 100.5,4.5 C100.2,3.8 99.7,3.2 99.2,2.7 C98.6,2.2 98,1.9 97.3,1.7 C96.5,1.5 95.9,1.4 95.3,1.4 C94.2,1.4 93.1,1.7 91.9,2.1 C90.6,2.5 89.4,3.3 88.1,4 C86.7,4.9 85.4,5.9 84.2,7.1 C83,8.2 81.9,9.5 80.8,11 C79.7,12.8 79,14.2 78.5,15.7 C77.9,17.3 77.6,19.1 77.6,21 C77.6,22.7 77.9,24.2 78.6,25.4 C79.3,26.4 80.1,27.3 81.1,28.1 C82.1,28.7 83.2,29.3 84.3,29.6 C85.3,29.9 86.4,30 87.6,30 C89.2,30 90.7,29.8 92.1,29.3 C93.7,28.8 95.2,28 96.9,26.8 C98.6,25.6 100.2,24.2 101.8,22.4 C102.5,21.7 103.1,20.9 103.8,20 C103.9,21.1 104.1,22.2 104.5,23.4 C104.9,24.6 105.6,25.6 106.5,26.4 C107.3,27.1 108.3,27.7 109.5,28.1 C110.8,28.5 111.9,28.6 113,28.6 C114.4,28.6 116.1,28.3 117.6,27.8 C119.2,27.3 120.8,26.5 122.3,25.3 C124,24.1 125.4,22.8 126.7,21.3 C126.7,22.3 126.8,23.5 127.2,24.5 C127.6,25.4 128.1,26.3 128.8,27.1 C129.5,27.8 130.3,28.5 131.3,28.8 C132.3,29.1 133.4,29.3 134.4,29.3 C135.3,29.3 136.4,29.1 137.8,28.8 C139.1,28.5 140.4,27.9 141.5,27.1 C142.7,26.4 144,25.3 145.1,24.1 C146.3,22.8 147.3,21.5 148.2,20 C148.5,20 148.9,20 149.2,20 C150.6,20 152,19.7 153.2,19 C154.5,18.3 155.8,17.2 156.9,15.5 L157.2,15.1 L155.4,13.5 Z M149.1,12 C148.9,12.8 148.7,13.6 148.4,14.4 C148.2,15 147.9,15.7 147.6,16.3 C147.3,16.1 147,15.7 146.7,15.3 C146.3,14.7 146,14.1 145.7,13.3 C145.4,12.7 145.2,11.9 145.1,11.1 L145.1,10.8 C145,10.1 144.9,9.5 144.9,8.9 C144.9,8.2 144.9,7.5 145.1,6.9 C145.3,6.2 145.5,5.7 145.8,5.2 C146.1,4.7 146.3,4.3 146.7,4.1 C147.1,3.8 147.4,3.7 147.7,3.7 C147.9,3.7 148.1,3.8 148.4,4 C148.6,4.1 148.8,4.5 148.9,4.8 C149.1,5.3 149.3,5.7 149.4,6.2 C149.5,6.8 149.6,7.4 149.6,8 C149.6,8.5 149.6,9.1 149.5,9.7 C149.4,10.5 149.3,11.2 149.1,12 Z M83.1,17.2 C83.7,15.6 84.5,14.1 85.6,12.5 C86.6,10.8 87.8,9.3 89.1,8 C90.5,6.6 91.8,5.6 92.9,5 C94.2,4.3 95.3,4 96.2,4 C96.5,4 96.8,4.1 97,4.4 C97.3,4.8 97.4,5.2 97.4,5.6 C97.4,6.1 97.3,6.7 96.9,7.5 C96.6,8.2 96.2,8.9 95.6,9.9 C95,10.8 94.3,11.6 93.4,12.4 C92.6,13.1 91.5,13.9 90.4,14.6 C89.1,15.4 87.9,15.9 86.7,16.4 C85.4,16.7 84.4,17 83.1,17.2 Z" id="Shape" fill="#000000"></path>
        </g>
    </g>
</svg>